{
    "asset" : {
        "generator" : "Khronos glTF Blender I/O v1.0.5",
        "version" : "2.0"
    },
    "scene" : 0,
    "scenes" : [
        {
            "name" : "Scene",
            "nodes" : [
                0,
                1,
                2,
                3,
                4,
                5
            ]
        }
    ],
    "nodes" : [
        {
            "mesh" : 0,
            "name" : "Icosphere",
            "rotation" : [
                0.6899994015693665,
                0.428984135389328,
                -0.244415283203125,
                0.5292774438858032
            ],
            "scale" : [
                4.522075176239014,
                4.522075653076172,
                4.522075653076172
            ],
            "translation" : [
                -0.33066466450691223,
                -0.562208890914917,
                1.7462793588638306
            ]
        },
        {
            "name" : "Area",
            "rotation" : [
                0.00853567011654377,
                -0.018128912895917892,
                -0.5341833829879761,
                0.8451310992240906
            ]
        },
        {
            "name" : "Camera",
            "rotation" : [
                0.7401255369186401,
                0.0007197434897534549,
                0.00564266461879015,
                0.6724447011947632
            ],
            "scale" : [
                6.217014312744141,
                6.217014312744141,
                6.217014312744141
            ],
            "translation" : [
                -1.1049401760101318,
                -0.5957469940185547,
                -21.321807861328125
            ]
        },
        {
            "mesh" : 1,
            "name" : "Icosphere.001",
            "scale" : [
                -0.4677571654319763,
                -0.4677571654319763,
                -0.4677571654319763
            ],
            "translation" : [
                1.4317054748535156,
                1.7206121683120728,
                -1.1719818115234375
            ]
        },
        {
            "mesh" : 2,
            "name" : "Icosphere.002",
            "scale" : [
                -0.4677571654319763,
                -0.4677571654319763,
                -0.4677571654319763
            ],
            "translation" : [
                -2.0677506923675537,
                1.2628005743026733,
                -1.4363303184509277
            ]
        },
        {
            "mesh" : 3,
            "name" : "BezierCurve",
            "rotation" : [
                -0.7103101015090942,
                -0.041776034981012344,
                0.03623965010046959,
                -0.7017129063606262
            ],
            "scale" : [
                2.3659462928771973,
                2.106858968734741,
                2.3659462928771973
            ],
            "translation" : [
                0.3088376522064209,
                -0.4686707854270935,
                -4.951894283294678
            ]
        }
    ],
    "materials" : [
        {
            "doubleSided" : true,
            "name" : "Material.002",
            "pbrMetallicRoughness" : {
                "baseColorFactor" : [
                    0.5704711675643921,
                    0.03169335052371025,
                    0.023381667211651802,
                    1
                ],
                "metallicFactor" : 0,
                "roughnessFactor" : 0.1420000046491623
            }
        },
        {
            "doubleSided" : true,
            "name" : "Material.003",
            "pbrMetallicRoughness" : {
                "baseColorFactor" : [
                    0.0036421341355890036,
                    0.0008335067541338503,
                    0.00028416342684067786,
                    1
                ],
                "metallicFactor" : 0,
                "roughnessFactor" : 0.1420000046491623
            }
        },
        {
            "doubleSided" : true,
            "name" : "Material.004",
            "pbrMetallicRoughness" : {
                "baseColorFactor" : [
                    0.0036421341355890036,
                    0.0008335067541338503,
                    0.00028416342684067786,
                    1
                ],
                "metallicFactor" : 0,
                "roughnessFactor" : 0.1420000046491623
            }
        },
        {
            "doubleSided" : true,
            "name" : "Material.005",
            "pbrMetallicRoughness" : {
                "baseColorFactor" : [
                    0,
                    0,
                    0,
                    1
                ],
                "metallicFactor" : 0,
                "roughnessFactor" : 0.5
            }
        }
    ],
    "meshes" : [
        {
            "name" : "Icosphere.001",
            "primitives" : [
                {
                    "attributes" : {
                        "POSITION" : 0,
                        "NORMAL" : 1,
                        "TEXCOORD_0" : 2
                    },
                    "indices" : 3,
                    "material" : 0
                }
            ]
        },
        {
            "name" : "Icosphere",
            "primitives" : [
                {
                    "attributes" : {
                        "POSITION" : 4,
                        "NORMAL" : 5,
                        "TEXCOORD_0" : 6
                    },
                    "indices" : 3,
                    "material" : 1
                }
            ]
        },
        {
            "name" : "Icosphere.002",
            "primitives" : [
                {
                    "attributes" : {
                        "POSITION" : 7,
                        "NORMAL" : 8,
                        "TEXCOORD_0" : 9
                    },
                    "indices" : 3,
                    "material" : 2
                }
            ]
        },
        {
            "name" : "BezierCurve.001",
            "primitives" : [
                {
                    "attributes" : {
                        "POSITION" : 10,
                        "NORMAL" : 11
                    },
                    "indices" : 12,
                    "material" : 3
                }
            ]
        }
    ],
    "accessors" : [
        {
            "bufferView" : 0,
            "componentType" : 5126,
            "count" : 63,
            "max" : [
                0.9510578513145447,
                1,
                0.9999999403953552
            ],
            "min" : [
                -0.9510578513145447,
                -1,
                -0.9999999403953552
            ],
            "type" : "VEC3"
        },
        {
            "bufferView" : 1,
            "componentType" : 5126,
            "count" : 63,
            "type" : "VEC3"
        },
        {
            "bufferView" : 2,
            "componentType" : 5126,
            "count" : 63,
            "type" : "VEC2"
        },
        {
            "bufferView" : 3,
            "componentType" : 5123,
            "count" : 240,
            "type" : "SCALAR"
        },
        {
            "bufferView" : 4,
            "componentType" : 5126,
            "count" : 63,
            "max" : [
                0.9510578513145447,
                1,
                0.9999999403953552
            ],
            "min" : [
                -0.9510578513145447,
                -1,
                -0.9999999403953552
            ],
            "type" : "VEC3"
        },
        {
            "bufferView" : 5,
            "componentType" : 5126,
            "count" : 63,
            "type" : "VEC3"
        },
        {
            "bufferView" : 6,
            "componentType" : 5126,
            "count" : 63,
            "type" : "VEC2"
        },
        {
            "bufferView" : 7,
            "componentType" : 5126,
            "count" : 63,
            "max" : [
                0.9510578513145447,
                1,
                0.9999999403953552
            ],
            "min" : [
                -0.9510578513145447,
                -1,
                -0.9999999403953552
            ],
            "type" : "VEC3"
        },
        {
            "bufferView" : 8,
            "componentType" : 5126,
            "count" : 63,
            "type" : "VEC3"
        },
        {
            "bufferView" : 9,
            "componentType" : 5126,
            "count" : 63,
            "type" : "VEC2"
        },
        {
            "bufferView" : 10,
            "componentType" : 5126,
            "count" : 156,
            "max" : [
                0.6353422403335571,
                1.3775265216827393,
                0.38230782747268677
            ],
            "min" : [
                -1.2509880065917969,
                0.9501094222068787,
                -0.19082871079444885
            ],
            "type" : "VEC3"
        },
        {
            "bufferView" : 11,
            "componentType" : 5126,
            "count" : 156,
            "type" : "VEC3"
        },
        {
            "bufferView" : 12,
            "componentType" : 5123,
            "count" : 864,
            "type" : "SCALAR"
        }
    ],
    "bufferViews" : [
        {
            "buffer" : 0,
            "byteLength" : 756,
            "byteOffset" : 0
        },
        {
            "buffer" : 0,
            "byteLength" : 756,
            "byteOffset" : 756
        },
        {
            "buffer" : 0,
            "byteLength" : 504,
            "byteOffset" : 1512
        },
        {
            "buffer" : 0,
            "byteLength" : 480,
            "byteOffset" : 2016
        },
        {
            "buffer" : 0,
            "byteLength" : 756,
            "byteOffset" : 2496
        },
        {
            "buffer" : 0,
            "byteLength" : 756,
            "byteOffset" : 3252
        },
        {
            "buffer" : 0,
            "byteLength" : 504,
            "byteOffset" : 4008
        },
        {
            "buffer" : 0,
            "byteLength" : 756,
            "byteOffset" : 4512
        },
        {
            "buffer" : 0,
            "byteLength" : 756,
            "byteOffset" : 5268
        },
        {
            "buffer" : 0,
            "byteLength" : 504,
            "byteOffset" : 6024
        },
        {
            "buffer" : 0,
            "byteLength" : 1872,
            "byteOffset" : 6528
        },
        {
            "buffer" : 0,
            "byteLength" : 1872,
            "byteOffset" : 8400
        },
        {
            "buffer" : 0,
            "byteLength" : 1728,
            "byteOffset" : 10272
        }
    ],
    "buffers" : [
        {
            "byteLength" : 12000,
            "uri" : "data:application/octet-stream;base64,"
        }
    ]
}
